<svg xmlns="http://www.w3.org/2000/svg" width="93.212" height="112.127" viewBox="0 0 93.212 112.127">
  <g id="그룹_11907" data-name="그룹 11907" transform="translate(-537.761 -732.453)">
    <path id="패스_9113" data-name="패스 9113" d="M630.973,795.262a46.606,46.606,0,1,0-46.605,46.606A46.606,46.606,0,0,0,630.973,795.262Z" transform="translate(0 0.407)" fill="#efefef"/>
    <g id="그룹_11906" data-name="그룹 11906" transform="translate(549.32 732.453)">
      <path id="패스_9114" data-name="패스 9114" d="M574.39,783.16a25.354,25.354,0,1,1,25.353-25.353A25.382,25.382,0,0,1,574.39,783.16Zm0-46.094a20.741,20.741,0,1,0,20.74,20.741A20.764,20.764,0,0,0,574.39,737.066Z" transform="translate(-549.037 -732.453)" fill="#6d4ef2"/>
      <path id="패스_9115" data-name="패스 9115" d="M574.183,774.506A16.907,16.907,0,1,1,591.089,757.6,16.925,16.925,0,0,1,574.183,774.506Zm0-29.2A12.294,12.294,0,1,0,586.476,757.6,12.307,12.307,0,0,0,574.183,745.306Z" transform="translate(-548.83 -732.246)" fill="#6d4ef2"/>
      <g id="그룹_11905" data-name="그룹 11905" transform="translate(0.715 15.925)">
        <g id="그룹_11903" data-name="그룹 11903">
          <path id="패스_9116" data-name="패스 9116" d="M616.75,807.536V788.089a6.724,6.724,0,0,0-12.859-2.752,6.72,6.72,0,0,0-12.265,0,6.718,6.718,0,0,0-10.485-2.371v-26a6.726,6.726,0,1,0-13.453,0V797.25s-2.374-8.177-9.5-8.44-7.913,7.913-3.429,11.078,3.958,17.144,15.827,25.059v6.595h38.776v-6.595A23.46,23.46,0,0,0,616.75,807.536Z" transform="translate(-549.678 -747.932)" fill="#fff"/>
          <path id="패스_9117" data-name="패스 9117" d="M609.422,833.9H570.646a2.307,2.307,0,0,1-2.307-2.306V826.2c-7.23-5.308-9.864-12.7-11.811-18.159-1-2.8-1.938-5.439-3.039-6.216a9.08,9.08,0,0,1-3.367-9.93c1.1-3.468,4.141-5.509,8.212-5.337a11.01,11.01,0,0,1,7.1,2.894V757.021a9.033,9.033,0,1,1,18.065,0V779.35a9.009,9.009,0,0,1,8.178,2.172,9.013,9.013,0,0,1,12.265,0,9.027,9.027,0,0,1,15.165,6.623v19.447a26.066,26.066,0,0,1-7.385,18.414V831.6A2.307,2.307,0,0,1,609.422,833.9Zm-36.469-4.613h34.163V825a2.309,2.309,0,0,1,.842-1.782,21.019,21.019,0,0,0,6.543-15.629V788.146a4.418,4.418,0,0,0-8.449-1.807,2.306,2.306,0,0,1-4.207,0,4.414,4.414,0,0,0-8.058,0,2.306,2.306,0,0,1-4.207,0,4.428,4.428,0,0,0-4.029-2.611,4.361,4.361,0,0,0-2.859,1.053,2.307,2.307,0,0,1-3.8-1.758v-26a4.42,4.42,0,1,0-8.839,0v40.285a2.307,2.307,0,0,1-4.522.643c-.078-.26-2.026-6.58-7.367-6.778l-.25,0c-1.779,0-2.951.736-3.394,2.128a4.424,4.424,0,0,0,1.631,4.766c2.293,1.62,3.366,4.628,4.725,8.437,1.92,5.387,4.311,12.092,11.051,16.587A2.306,2.306,0,0,1,572.953,825Z" transform="translate(-549.734 -747.988)" fill="#595757"/>
        </g>
        <g id="그룹_11904" data-name="그룹 11904" transform="translate(14.649 79.985)">
          <path id="패스_9118" data-name="패스 9118" d="M566.274,839.868v-11.6H612.7v11.6" transform="translate(-563.967 -825.957)" fill="#fff"/>
          <path id="패스_9119" data-name="패스 9119" d="M612.756,842.231a2.307,2.307,0,0,1-2.307-2.306v-9.3H568.637v9.3a2.306,2.306,0,0,1-4.613,0v-11.6a2.307,2.307,0,0,1,2.307-2.307h46.425a2.306,2.306,0,0,1,2.307,2.307v11.6A2.307,2.307,0,0,1,612.756,842.231Z" transform="translate(-564.024 -826.014)" fill="#595757"/>
        </g>
      </g>
    </g>
  </g>
</svg>
