<svg xmlns="http://www.w3.org/2000/svg" width="99.623" height="99.686" viewBox="0 0 99.623 99.686">
  <g id="그룹_11917" data-name="그룹 11917" transform="translate(-293.88 -787.144)">
    <g id="그룹_11915" data-name="그룹 11915" transform="translate(293.88 787.144)">
      <path id="패스_9120" data-name="패스 9120" d="M373.234,878.584H320.691a2.163,2.163,0,0,1-2.163-2.163V798.246a2.163,2.163,0,0,1,2.163-2.163h52.544a2.163,2.163,0,0,1,2.163,2.163v78.175A2.163,2.163,0,0,1,373.234,878.584Zm-50.381-4.325h48.218v-73.85H322.853Z" transform="translate(-294.837 -787.491)" fill="#efefef"/>
      <g id="그룹_11914" data-name="그룹 11914">
        <g id="그룹_11909" data-name="그룹 11909">
          <g id="그룹_11908" data-name="그룹 11908">
            <path id="사각형_17594" data-name="사각형 17594" d="M6.188,0H50.462a6.187,6.187,0,0,1,6.187,6.187V89.174a6.188,6.188,0,0,1-6.187,6.188H6.187A6.187,6.187,0,0,1,0,89.174V6.188A6.188,6.188,0,0,1,6.188,0Z" transform="translate(2.163 2.162)" fill="#fff"/>
            <path id="패스_9121" data-name="패스 9121" d="M346.746,886.83H301.989a8.119,8.119,0,0,1-8.109-8.109V795.253a8.119,8.119,0,0,1,8.109-8.109h44.756a8.119,8.119,0,0,1,8.109,8.109V878.72A8.119,8.119,0,0,1,346.746,886.83Zm-44.756-95.36a3.788,3.788,0,0,0-3.784,3.784V878.72a3.788,3.788,0,0,0,3.784,3.784h44.756a3.788,3.788,0,0,0,3.784-3.784V795.253a3.788,3.788,0,0,0-3.784-3.784Z" transform="translate(-293.88 -787.144)" fill="#595757"/>
          </g>
          <path id="패스_9122" data-name="패스 9122" d="M329.662,800.75h-8.651a2.163,2.163,0,1,1,0-4.325h8.651a2.163,2.163,0,1,1,0,4.325Z" transform="translate(-294.849 -787.504)" fill="#595757"/>
        </g>
        <path id="패스_9123" data-name="패스 9123" d="M349.583,838.068a23.069,23.069,0,1,0-23.069,23.068A23.068,23.068,0,0,0,349.583,838.068Z" transform="translate(-294.251 -788.226)" fill="#efefef"/>
        <g id="그룹_11913" data-name="그룹 11913" transform="translate(39.399 19.73)">
          <g id="그룹_11911" data-name="그룹 11911">
            <g id="그룹_11910" data-name="그룹 11910">
              <path id="패스_9124" data-name="패스 9124" d="M393.019,837.872a27.95,27.95,0,1,0-27.95,27.949A27.95,27.95,0,0,0,393.019,837.872Z" transform="translate(-334.957 -807.758)" fill="#fff"/>
              <path id="패스_9125" data-name="패스 9125" d="M364.982,867.9a30.113,30.113,0,1,1,30.113-30.112A30.146,30.146,0,0,1,364.982,867.9Zm0-55.9a25.787,25.787,0,1,0,25.787,25.788A25.817,25.817,0,0,0,364.982,812Z" transform="translate(-334.87 -807.671)" fill="#595757"/>
            </g>
            <path id="패스_9126" data-name="패스 9126" d="M365.586,867.471a2.166,2.166,0,0,1-1.194-.359c-8.6-5.693-13.946-16.923-13.946-29.309s5.344-23.618,13.946-29.311a2.165,2.165,0,0,1,2.388,0c8.6,5.693,13.946,16.923,13.946,29.311s-5.343,23.616-13.946,29.309A2.164,2.164,0,0,1,365.586,867.471Zm0-54.522c-6.7,5.134-10.814,14.5-10.814,24.853s4.11,19.717,10.814,24.851c6.7-5.134,10.814-14.5,10.814-24.851S372.291,818.083,365.586,812.95Z" transform="translate(-335.475 -807.689)" fill="#595757"/>
          </g>
          <path id="패스_9127" data-name="패스 9127" d="M392.932,841.076h-55.9a2.163,2.163,0,1,1,0-4.325h55.9a2.163,2.163,0,1,1,0,4.325Z" transform="translate(-334.87 -808.8)" fill="#595757"/>
          <g id="그룹_11912" data-name="그룹 11912" transform="translate(5.489 13.089)">
            <path id="패스_9128" data-name="패스 9128" d="M387.663,825.614h-44.92a2.163,2.163,0,0,1,0-4.325h44.92a2.163,2.163,0,0,1,0,4.325Z" transform="translate(-340.581 -821.289)" fill="#595757"/>
            <path id="패스_9129" data-name="패스 9129" d="M387.663,856.538h-44.92a2.163,2.163,0,0,1,0-4.325h44.92a2.163,2.163,0,0,1,0,4.325Z" transform="translate(-340.581 -822.49)" fill="#595757"/>
          </g>
        </g>
      </g>
    </g>
    <g id="그룹_11916" data-name="그룹 11916" transform="translate(317.719 841.121)">
      <path id="패스_9130" data-name="패스 9130" d="M357.656,859.221a6.561,6.561,0,0,0-9.121-7.995,12.094,12.094,0,0,0-22.344,6.42,12.3,12.3,0,0,0,.145,1.873,9.2,9.2,0,0,0,3.8,17.584h24.453a9.2,9.2,0,0,0,3.068-17.882Z" transform="translate(-318.769 -843.389)" fill="#fff"/>
      <path id="패스_9131" data-name="패스 9131" d="M354.5,879.178H330.047a11.365,11.365,0,0,1-6.091-20.959c-.01-.22-.015-.441-.015-.66a14.257,14.257,0,0,1,25.31-9.006,8.593,8.593,0,0,1,2.094-.257,8.746,8.746,0,0,1,8.736,8.736,8.483,8.483,0,0,1-.042.856,11.366,11.366,0,0,1-5.538,21.291Zm-16.3-31.552a9.933,9.933,0,0,0-9.813,11.474,2.164,2.164,0,0,1-1.244,2.3,7.039,7.039,0,0,0,2.9,13.452H354.5a7.041,7.041,0,0,0,2.346-13.68,2.163,2.163,0,0,1-1.326-2.733,4.4,4.4,0,0,0-6.116-5.362,2.165,2.165,0,0,1-2.788-.79A9.887,9.887,0,0,0,338.2,847.626Z" transform="translate(-318.682 -843.301)" fill="#6d4ef2"/>
    </g>
    <path id="패스_9132" data-name="패스 9132" d="M334.317,860.031a2.163,2.163,0,0,1-2.163-2.163,6.575,6.575,0,0,1,6.568-6.568,2.163,2.163,0,1,1,0,4.325,2.245,2.245,0,0,0-2.242,2.242A2.163,2.163,0,0,1,334.317,860.031Z" transform="translate(-1.486 -2.491)" fill="#efefef"/>
  </g>
</svg>
