<svg xmlns="http://www.w3.org/2000/svg" width="53.987" height="53.987" viewBox="0 0 53.987 53.987">
  <g id="그룹_11945" data-name="그룹 11945" opacity="0.9">
    <g id="그룹_11944" data-name="그룹 11944" transform="translate(0 0)">
      <g id="그룹_11943" data-name="그룹 11943">
        <g id="그룹_11940" data-name="그룹 11940">
          <path id="패스_9161" data-name="패스 9161" d="M714.738,1045.407a2.051,2.051,0,0,1-1.919-2.77l3.816-10.17a27,27,0,1,1,8.994,8.993l-10.171,3.816A2.035,2.035,0,0,1,714.738,1045.407Zm11.13-8.276a2.046,2.046,0,0,1,1.137.344,22.9,22.9,0,1,0-6.385-6.385,2.046,2.046,0,0,1,.214,1.857l-2.591,6.905,6.905-2.591A2.049,2.049,0,0,1,725.868,1037.13Z" transform="translate(-712.688 -991.42)" fill="#fff"/>
        </g>
        <g id="그룹_11942" data-name="그룹 11942" transform="translate(9.259 17.421)">
          <path id="패스_9162" data-name="패스 9162" d="M746.877,1035.082h0a2.051,2.051,0,0,1-1.922-1.336l-4.175-11.229-4.174,11.229a2.049,2.049,0,0,1-3.842,0l-7.6-20.439a2.049,2.049,0,0,1,3.842-1.429l5.681,15.272,4.175-11.23a2.051,2.051,0,0,1,3.844,0l4.175,11.23,5.68-15.272a2.05,2.05,0,1,1,3.843,1.429l-7.6,20.439A2.051,2.051,0,0,1,746.877,1035.082Z" transform="translate(-723.045 -1010.541)" fill="#fff"/>
          <g id="그룹_11941" data-name="그룹 11941" transform="translate(0 10.389)">
            <path id="패스_9163" data-name="패스 9163" d="M730.3,1026.045h-5.4a2.05,2.05,0,0,1,0-4.1h5.4a2.05,2.05,0,0,1,0,4.1Z" transform="translate(-722.851 -1021.945)" fill="#fff"/>
            <path id="패스_9164" data-name="패스 9164" d="M758.806,1026.045h-5.4a2.05,2.05,0,0,1,0-4.1h5.4a2.05,2.05,0,0,1,0,4.1Z" transform="translate(-725.386 -1021.945)" fill="#fff"/>
          </g>
        </g>
      </g>
    </g>
  </g>
</svg>
