<svg xmlns="http://www.w3.org/2000/svg" width="61.138" height="58.671" viewBox="0 0 61.138 58.671">
  <g id="그룹_11871" data-name="그룹 11871" opacity="0.9">
    <path id="패스_9059" data-name="패스 9059" d="M487.1,887.726a7.2,7.2,0,1,0-7.2,7.2A7.208,7.208,0,0,0,487.1,887.726Z" transform="translate(-463.783 -852.057)" fill="#fff"/>
    <path id="패스_9060" data-name="패스 9060" d="M482.329,892.014a9.129,9.129,0,1,0-14.75,0,10.631,10.631,0,0,0-8.741,10.443v6.236a.965.965,0,0,0,1.93,0v-6.236a8.7,8.7,0,0,1,8.489-8.68,9.088,9.088,0,0,0,11.395,0,8.7,8.7,0,0,1,8.489,8.68v6.236a.965.965,0,0,0,1.93,0v-6.236A10.63,10.63,0,0,0,482.329,892.014Zm-14.574-5.358a7.2,7.2,0,1,1,7.2,7.2A7.208,7.208,0,0,1,467.755,886.656Z" transform="translate(-458.838 -850.987)" fill="#fff"/>
    <path id="패스_9061" data-name="패스 9061" d="M468.526,915.636a.965.965,0,0,0-.965.965v5.688a.965.965,0,1,0,1.93,0V916.6A.965.965,0,0,0,468.526,915.636Z" transform="translate(-461.95 -864.582)" fill="#fff"/>
    <path id="패스_9062" data-name="패스 9062" d="M498.189,915.636a.965.965,0,0,0-.965.965v5.688a.965.965,0,0,0,1.93,0V916.6A.965.965,0,0,0,498.189,915.636Z" transform="translate(-472.532 -864.582)" fill="#fff"/>
    <path id="패스_9063" data-name="패스 9063" d="M507.213,847.315h-.161a.965.965,0,1,0,0,1.93h.1a10.484,10.484,0,0,1,.45-1.848A.957.957,0,0,0,507.213,847.315Z" transform="translate(-475.693 -840.209)" fill="#fff"/>
    <path id="패스_9064" data-name="패스 9064" d="M501.036,849.245h.352a.965.965,0,0,0,0-1.93h-.352a.965.965,0,1,0,0,1.93Z" transform="translate(-473.547 -840.209)" fill="#fff"/>
    <path id="패스_9065" data-name="패스 9065" d="M489,849.245h.352a.965.965,0,1,0,0-1.93H489a.965.965,0,1,0,0,1.93Z" transform="translate(-469.255 -840.209)" fill="#fff"/>
    <path id="패스_9066" data-name="패스 9066" d="M495.021,849.245h.351a.965.965,0,1,0,0-1.93h-.351a.965.965,0,1,0,0,1.93Z" transform="translate(-471.402 -840.209)" fill="#fff"/>
    <path id="패스_9067" data-name="패스 9067" d="M483.285,849.406a1.048,1.048,0,0,0,.161-2.091h-.161a.965.965,0,0,0-.965.965v.161A.965.965,0,0,0,483.285,849.406Z" transform="translate(-467.215 -840.209)" fill="#fff"/>
    <path id="패스_9068" data-name="패스 9068" d="M483.285,859.515a.965.965,0,0,0,.965-.965v-.3a.965.965,0,0,0-1.93,0v.3A.965.965,0,0,0,483.285,859.515Z" transform="translate(-467.215 -843.767)" fill="#fff"/>
    <path id="패스_9069" data-name="패스 9069" d="M483.285,869.7a.965.965,0,0,0,.965-.965v-.3a.965.965,0,1,0-1.93,0v.3A.965.965,0,0,0,483.285,869.7Z" transform="translate(-467.215 -847.4)" fill="#fff"/>
    <path id="패스_9070" data-name="패스 9070" d="M483.285,854.421a.965.965,0,0,0,.965-.965v-.3a.965.965,0,1,0-1.93,0v.3A.965.965,0,0,0,483.285,854.421Z" transform="translate(-467.215 -841.95)" fill="#fff"/>
    <path id="패스_9071" data-name="패스 9071" d="M483.285,864.607a.965.965,0,0,0,.965-.965v-.3a.965.965,0,1,0-1.93,0v.3A.965.965,0,0,0,483.285,864.607Z" transform="translate(-467.215 -845.583)" fill="#fff"/>
    <path id="패스_9072" data-name="패스 9072" d="M483.285,874.654a.965.965,0,0,0,.965-.965v-.161a.965.965,0,1,0-1.93,0v.161A.965.965,0,0,0,483.285,874.654Z" transform="translate(-467.215 -849.217)" fill="#fff"/>
    <path id="패스_9073" data-name="패스 9073" d="M526.307,904.836h-.322a.965.965,0,1,0,0,1.93h.322a.965.965,0,1,0,0-1.93Z" transform="translate(-482.448 -860.729)" fill="#fff"/>
    <path id="패스_9074" data-name="패스 9074" d="M520.807,904.836h-.322a.965.965,0,1,0,0,1.93h.322a.965.965,0,1,0,0-1.93Z" transform="translate(-480.486 -860.729)" fill="#fff"/>
    <path id="패스_9075" data-name="패스 9075" d="M515.307,904.836h-.322a.965.965,0,1,0,0,1.93h.322a.965.965,0,1,0,0-1.93Z" transform="translate(-478.524 -860.729)" fill="#fff"/>
    <path id="패스_9076" data-name="패스 9076" d="M509.807,904.836h-.322a.965.965,0,1,0,0,1.93h.322a.965.965,0,1,0,0-1.93Z" transform="translate(-476.562 -860.729)" fill="#fff"/>
    <path id="패스_9077" data-name="패스 9077" d="M531.023,903.872a.965.965,0,0,0-.965.965v.322a.965.965,0,1,0,1.93,0v-.322A.965.965,0,0,0,531.023,903.872Z" transform="translate(-484.245 -860.385)" fill="#fff"/>
    <path id="패스_9078" data-name="패스 9078" d="M531.023,898.372a.965.965,0,0,0-.965.965v.322a.965.965,0,1,0,1.93,0v-.322A.965.965,0,0,0,531.023,898.372Z" transform="translate(-484.245 -858.423)" fill="#fff"/>
    <path id="패스_9079" data-name="패스 9079" d="M531.023,887.372a.965.965,0,0,0-.965.965v.322a.965.965,0,0,0,1.93,0v-.322A.965.965,0,0,0,531.023,887.372Z" transform="translate(-484.245 -854.499)" fill="#fff"/>
    <path id="패스_9080" data-name="패스 9080" d="M531.023,892.872a.965.965,0,0,0-.965.965v.322a.965.965,0,1,0,1.93,0v-.322A.965.965,0,0,0,531.023,892.872Z" transform="translate(-484.245 -856.461)" fill="#fff"/>
    <path id="패스_9081" data-name="패스 9081" d="M531.023,881.872a.965.965,0,0,0-.965.965v.322a.965.965,0,1,0,1.93,0v-.322A.965.965,0,0,0,531.023,881.872Z" transform="translate(-484.245 -852.537)" fill="#fff"/>
    <path id="패스_9082" data-name="패스 9082" d="M523.935,846.263a10.588,10.588,0,0,0-21.042-.958c-.046.315-.082.634-.1.958a9.075,9.075,0,0,0,.436,18.14H523.5a9.075,9.075,0,0,0,.437-18.14Z" transform="translate(-471.437 -836.269)" fill="#fff"/>
  </g>
</svg>
