<svg xmlns="http://www.w3.org/2000/svg" width="74.301" height="81.213" viewBox="0 0 74.301 81.213">
  <g id="그룹_11848" data-name="그룹 11848" transform="translate(1.017)" opacity="0.9">
    <path id="패스_5896" data-name="패스 5896" d="M643.111,834.543a21.514,21.514,0,1,0-30.378,19.6l2.318,7.117h13.1l2.316-7.117A21.513,21.513,0,0,0,643.111,834.543Z" transform="translate(-585.631 -789.859)" fill="none" stroke="#fff" stroke-miterlimit="10" stroke-width="2"/>
    <path id="패스_5897" data-name="패스 5897" d="M621.005,880.17h0a5.471,5.471,0,0,0,10.943,0H621.005Z" transform="translate(-590.637 -805.927)" fill="none" stroke="#fff" stroke-miterlimit="10" stroke-width="3"/>
    <g id="그룹_10579" data-name="그룹 10579" transform="translate(20.912 42.651)">
      <path id="패스_5898" data-name="패스 5898" d="M617.687,839.539c4.1,1.975,5.743,7.074,5.743,7.074s-5.011,1.893-9.112-.081-5.744-7.074-5.744-7.074S613.585,837.563,617.687,839.539Z" transform="translate(-608.575 -838.639)" fill="#fff"/>
      <path id="패스_5899" data-name="패스 5899" d="M633.846,839.539c-4.1,1.975-5.742,7.074-5.742,7.074s5.008,1.893,9.111-.081,5.743-7.074,5.743-7.074S637.949,837.563,633.846,839.539Z" transform="translate(-613.248 -838.639)" fill="#fff"/>
      <line id="선_55" data-name="선 55" y2="13.632" transform="translate(14.856 7.81)" fill="none" stroke="#fff" stroke-miterlimit="10" stroke-width="2"/>
    </g>
    <line id="선_59" data-name="선 59" x2="12.526" y2="11.563" transform="translate(0 16.38)" fill="none" stroke="#fff" stroke-width="3"/>
    <line id="선_60" data-name="선 60" x1="12.526" y2="11.563" transform="translate(59.74 16.38)" fill="none" stroke="#fff" stroke-width="3"/>
    <line id="선_61" data-name="선 61" y2="16.38" transform="translate(35.651)" fill="none" stroke="#fff" stroke-width="3"/>
  </g>
</svg>
