<svg xmlns="http://www.w3.org/2000/svg" width="56.655" height="53.556" viewBox="0 0 56.655 53.556">
  <g id="그룹_11933" data-name="그룹 11933" opacity="0.9">
    <g id="그룹_11932" data-name="그룹 11932" transform="translate(0)">
      <g id="그룹_11924" data-name="그룹 11924">
        <g id="그룹_11921" data-name="그룹 11921">
          <rect id="사각형_17663" data-name="사각형 17663" width="53.626" height="50.528" transform="translate(1.515 1.514)" fill="none"/>
          <path id="패스_9135" data-name="패스 9135" d="M724.544,488.7H670.917a1.515,1.515,0,0,1-1.514-1.514V436.658a1.515,1.515,0,0,1,1.514-1.514h53.626a1.515,1.515,0,0,1,1.514,1.514v50.528A1.515,1.515,0,0,1,724.544,488.7Zm-52.112-3.029h50.6v-47.5h-50.6Z" transform="translate(-669.403 -435.144)" fill="#fff"/>
        </g>
        <g id="그룹_11922" data-name="그룹 11922">
          <path id="패스_9136" data-name="패스 9136" d="M671.653,445.293v-7.9H725.28v7.9" transform="translate(-670.139 -435.879)" fill="#fff"/>
          <path id="패스_9137" data-name="패스 9137" d="M724.544,446.072a1.515,1.515,0,0,1-1.514-1.514v-6.385h-50.6v6.385a1.514,1.514,0,1,1-3.029,0v-7.9a1.515,1.515,0,0,1,1.514-1.514h53.626a1.515,1.515,0,0,1,1.514,1.514v7.9A1.515,1.515,0,0,1,724.544,446.072Z" transform="translate(-669.403 -435.144)" fill="#fff"/>
        </g>
        <g id="그룹_11923" data-name="그룹 11923" transform="translate(5.3 4.642)">
          <path id="패스_9138" data-name="패스 9138" d="M679.909,443.356a1.316,1.316,0,1,0-1.317,1.317A1.317,1.317,0,0,0,679.909,443.356Z" transform="translate(-677.277 -442.04)" fill="#fff"/>
          <path id="패스_9139" data-name="패스 9139" d="M687,443.356a1.317,1.317,0,1,0-1.315,1.317A1.316,1.316,0,0,0,687,443.356Z" transform="translate(-679.594 -442.04)" fill="#fff"/>
          <path id="패스_9140" data-name="패스 9140" d="M694.09,443.356a1.316,1.316,0,1,0-1.316,1.317A1.316,1.316,0,0,0,694.09,443.356Z" transform="translate(-681.913 -442.04)" fill="#fff"/>
        </g>
      </g>
      <g id="그룹_11930" data-name="그룹 11930" transform="translate(7.654 28.085)">
        <g id="그룹_11928" data-name="그룹 11928">
          <rect id="사각형_17665" data-name="사각형 17665" width="38.317" height="6.722" transform="translate(1.515 1.514)" fill="#fff"/>
          <path id="패스_9144" data-name="패스 9144" d="M720.607,486.621H682.289a1.515,1.515,0,0,1-1.514-1.514v-6.721a1.515,1.515,0,0,1,1.514-1.514h38.317a1.514,1.514,0,0,1,1.514,1.514v6.721A1.514,1.514,0,0,1,720.607,486.621Zm-36.8-3.029h35.289V479.9H683.8Z" transform="translate(-680.775 -476.871)" fill="#fff"/>
        </g>
      </g>
      <g id="그룹_11931" data-name="그룹 11931" transform="translate(17.622 42.482)">
        <path id="패스_9147" data-name="패스 9147" d="M699.31,500.123a1.863,1.863,0,1,0-1.863,1.863A1.862,1.862,0,0,0,699.31,500.123Z" transform="translate(-695.585 -498.261)" fill="#fff"/>
        <path id="패스_9148" data-name="패스 9148" d="M712.448,500.123a1.862,1.862,0,1,0-1.862,1.863A1.862,1.862,0,0,0,712.448,500.123Z" transform="translate(-699.88 -498.261)" fill="#fff"/>
        <path id="패스_9149" data-name="패스 9149" d="M725.585,500.123a1.862,1.862,0,1,0-1.862,1.863A1.862,1.862,0,0,0,725.585,500.123Z" transform="translate(-704.175 -498.261)" fill="#fff"/>
      </g>
    </g>
  </g>
</svg>
