<svg xmlns="http://www.w3.org/2000/svg" width="61.952" height="57.813" viewBox="0 0 61.952 57.813">
  <g id="그룹_11866" data-name="그룹 11866" opacity="0.9">
    <path id="패스_8995" data-name="패스 8995" d="M504.309,919.364a1.8,1.8,0,1,0,1.8-1.8A1.8,1.8,0,0,0,504.309,919.364Z" transform="translate(-475.13 -865.274)" fill="none"/>
    <path id="패스_8996" data-name="패스 8996" d="M466.273,848.754v35.333h52.41V848.754Zm7.862,29.862H472.21a.963.963,0,0,1,0-1.925h1.925a.963.963,0,0,1,0,1.925Zm0-5.775H472.21a.963.963,0,0,1,0-1.925h1.925a.963.963,0,0,1,0,1.925Zm0-5.775H472.21a.963.963,0,0,1,0-1.925h1.925a.963.963,0,1,1,0,1.925Zm0-5.775H472.21a.963.963,0,0,1,0-1.925h1.925a.963.963,0,1,1,0,1.925Zm0-5.775H472.21a.963.963,0,0,1,0-1.925h1.925a.963.963,0,1,1,0,1.925Zm37,7.542a.963.963,0,1,1-1.925,0v-4.839L493.928,873.5a.961.961,0,0,1-1.361,0l-4.2-4.2-8.762,8.762a.962.962,0,1,1-1.361-1.361l9.443-9.442a.961.961,0,0,1,1.361,0l4.2,4.2,14.606-14.607h-4.839a.963.963,0,0,1,0-1.925h7.163a.964.964,0,0,1,.351.068l.015,0a.967.967,0,0,1,.524.524l0,.015a.966.966,0,0,1,.068.351Z" transform="translate(-461.502 -840.619)" fill="none"/>
    <path id="패스_8997" data-name="패스 8997" d="M517.8,839.077H463.98a2.142,2.142,0,0,0,0,4.285H517.8a2.142,2.142,0,0,0,0-4.285Z" transform="translate(-459.913 -837.152)" fill="none"/>
    <path id="패스_8998" data-name="패스 8998" d="M520.79,840.145a4.072,4.072,0,0,0-4.067-4.068H462.905a4.067,4.067,0,0,0-1.221,7.947v36.484a.963.963,0,0,0,.963.963h26.2v5.106a3.723,3.723,0,1,0,1.925,0V881.47h26.2a.963.963,0,0,0,.963-.963V844.024A4.073,4.073,0,0,0,520.79,840.145Zm-29.179,50.022a1.8,1.8,0,1,1-1.8-1.8A1.8,1.8,0,0,1,491.611,890.167Zm-28-10.622V844.212h52.41v35.333Zm53.114-37.258H462.905a2.142,2.142,0,0,1,0-4.285h53.818a2.142,2.142,0,0,1,0,4.285Z" transform="translate(-458.838 -836.077)" fill="#fff"/>
    <path id="패스_8999" data-name="패스 8999" d="M517.592,858.977a.965.965,0,0,0-.524-.524l-.015,0a.965.965,0,0,0-.351-.068H509.54a.963.963,0,1,0,0,1.925h4.839l-14.606,14.607-4.2-4.2a.961.961,0,0,0-1.361,0l-9.443,9.442a.962.962,0,0,0,1.361,1.361l8.762-8.762,4.2,4.2a.961.961,0,0,0,1.361,0l15.287-15.287v4.839a.963.963,0,0,0,1.925,0v-7.163a.967.967,0,0,0-.068-.351Z" transform="translate(-468.027 -844.068)" fill="#fff"/>
    <path id="패스_9000" data-name="패스 9000" d="M476.913,856.289h-1.925a.963.963,0,0,0,0,1.925h1.925a.963.963,0,0,0,0-1.925Z" transform="translate(-464.279 -843.319)" fill="#fff"/>
    <path id="패스_9001" data-name="패스 9001" d="M476.913,865.289h-1.925a.963.963,0,0,0,0,1.925h1.925a.963.963,0,0,0,0-1.925Z" transform="translate(-464.279 -846.543)" fill="#fff"/>
    <path id="패스_9002" data-name="패스 9002" d="M476.913,874.289h-1.925a.963.963,0,0,0,0,1.925h1.925a.963.963,0,0,0,0-1.925Z" transform="translate(-464.279 -849.768)" fill="#fff"/>
    <path id="패스_9003" data-name="패스 9003" d="M476.913,883.289h-1.925a.963.963,0,0,0,0,1.925h1.925a.963.963,0,0,0,0-1.925Z" transform="translate(-464.279 -852.993)" fill="#fff"/>
    <path id="패스_9004" data-name="패스 9004" d="M476.913,892.289h-1.925a.963.963,0,0,0,0,1.925h1.925a.963.963,0,0,0,0-1.925Z" transform="translate(-464.279 -856.217)" fill="#fff"/>
  </g>
</svg>
